{"title":"Pacific Rim [2013] 720p BluRay QEBSx AAC20-FASM[ETRG]","uid":9552265,"size":3383239399,"categoryP":"video","categoryS":"hd___movies","magnet":"?xt=urn:btih:22965016c91b6a4fa74d32a5d86ca82ce9aca318&amp;dn=Pacific+Rim+%5B2013%5D+720p+BluRay+QEBSx+AAC20-FASM%5BETRG%5D&amp;tr=udp%3A%2F%2Ftracker.openbittorrent.com%3A80&amp;tr=udp%3A%2F%2Fopen.demonii.com%3A1337&amp;tr=udp%3A%2F%2Ftracker.coppersurfer.tk%3A6969&amp;tr=udp%3A%2F%2Fexodus.desync.com%3A6969","seeders":2,"leechers":0,"uploader":"SaM","files":9,"time":1391290272,"description":"As a war between humankind and monstrous sea creatures wages on,\na former pilot and a trainee are paired up to drive a seemingly obsolete\nspecial weapon in a desperate effort to save the world from the apocalypse.\n\n\n\nt2ws.png\n\nCharlie Hunnam : Raleigh Becket\nDiego Klattenhoff : Yancy Becket\nIdris Elba : Stacker Pentecost\nRinko Kikuchi : Mako Mori\n\n\n\nComplete name                  : Pacific_Rim_2013_720p_BluRay_QEBSx_AAC20_MP4-FASM.mp4\nFormat                         : MPEG-4\nFormat profile                 : Base Media\nCodec ID                       : isom\nFile size                      : 3.13 GiB\nDuration                       : 2h 11mn\nOverall bit rate mode          : Variable\nOverall bit rate               : 3 414 Kbps\nEncoded date                   : UTC 2013-12-04 18:43:25\nTagged date                    : UTC 2013-12-04 18:43:25\n\nVideo\nID                             : 1\nFormat                         : AVC\nFormat/Info                    : Advanced Video Codec\nFormat profile                 : &lt;a class=&quot;__cf_email__&quot; href=&quot;/cdn-cgi/l/email-protection&quot; data-cfemail=&quot;e1a9888689a1add2cfd0&quot;&gt;[email&amp;#160;protected]&lt;/a&gt;&lt;script cf-hash='f9e31' type=&quot;text/javascript&quot;&gt;\n/* &lt;![CDATA[ */!function(){try{var t=&quot;currentScript&quot;in document?document.currentScript:function(){for(var t=document.getElementsByTagName(&quot;script&quot;),e=t.length;e--;)if(t[e].getAttribute(&quot;cf-hash&quot;))return t[e]}();if(t&amp;&amp;t.previousSibling){var e,r,n,i,c=t.previousSibling,a=c.getAttribute(&quot;data-cfemail&quot;);if(a){for(e=&quot;&quot;,r=parseInt(a.substr(0,2),16),n=2;a.length-n;n+=2)i=parseInt(a.substr(n,2),16)^r,e+=String.fromCharCode(i);e=document.createTextNode(e),c.parentNode.replaceChild(e,c)}}}catch(u){}}();/* ]]&gt; */&lt;/script&gt;\nFormat settings, CABAC         : Yes\nFormat settings, ReFrames      : 5 frames\nCodec ID                       : avc1\nCodec ID/Info                  : Advanced Video Coding\nDuration                       : 2h 11mn\nBit rate                       : 3 263 Kbps\nMaximum bit rate               : 10.3 Mbps\nWidth                          : 1 280 pixels\nHeight                         : 720 pixels\nDisplay aspect ratio           : 16:9\nFrame rate mode                : Constant\nFrame rate                     : 23.976 fps\nColor space                    : YUV\nChroma subsampling             : 4:2:0\nBit depth                      : 8 bits\nScan type                      : Progressive\nBits/(Pixel*Frame)             : 0.148\nStream size                    : 2.99 GiB (96%)\nWriting library                : FASM Quality Enhancer Bitrate Squeezer X.5 (c)2013 Fachman\nEncoded date                   : UTC 2013-12-04 18:43:25\nTagged date                    : UTC 2013-12-04 18:46:26\nColor primaries                : BT.709\nTransfer characteristics       : BT.709\nMatrix coefficients            : BT.709\n\nAudio\nID                             : 2\nFormat                         : AAC\nFormat/Info                    : Advanced Audio Codec\nFormat profile                 : LC\nCodec ID                       : 40\nDuration                       : 2h 11mn\nSource duration                : 2h 11mn\nBit rate mode                  : Variable\nBit rate                       : 147 Kbps\nMaximum bit rate               : 217 Kbps\nChannel(s)                     : 2 channels\nChannel positions              : Front: L R\nSampling rate                  : 48.0 KHz\nCompression mode               : Lossy\nStream size                    : 138 MiB (4%)\nSource stream size             : 138 MiB (4%)\nLanguage                       : English\nEncoded date                   : UTC 2013-10-08 21:51:43\n &lt;a href=&quot;\nhttp://someimage.com/4PCn3Vz&quot; rel=&quot;nofollow&quot; target=&quot;_NEW&quot;&gt;\nhttp://someimage.com/4PCn3Vz&lt;/a&gt; &lt;a href=&quot;\nhttp://someimage.com/CwrtBAM&quot; rel=&quot;nofollow&quot; target=&quot;_NEW&quot;&gt;\nhttp://someimage.com/CwrtBAM&lt;/a&gt; &lt;a href=&quot;\nhttp://someimage.com/df8nMM1&quot; rel=&quot;nofollow&quot; target=&quot;_NEW&quot;&gt;\nhttp://someimage.com/df8nMM1&lt;/a&gt;\n","torrent":{"xt":"urn:btih:22965016c91b6a4fa74d32a5d86ca82ce9aca318","amp;dn":"Pacific+Rim+%5B2013%5D+720p+BluRay+QEBSx+AAC20-FASM%5BETRG%5D","amp;tr":["udp%3A%2F%2Ftracker.openbittorrent.com%3A80","udp%3A%2F%2Fopen.demonii.com%3A1337","udp%3A%2F%2Ftracker.coppersurfer.tk%3A6969","udp%3A%2F%2Fexodus.desync.com%3A6969"],"infoHash":"22965016c91b6a4fa74d32a5d86ca82ce9aca318","infoHashBuffer":{"type":"Buffer","data":[34,150,80,22,201,27,106,79,167,77,50,165,216,108,168,44,233,172,163,24]},"announce":[],"urlList":[]}}